<svg width="1440" height="1024" viewBox="0 0 1440 1024" fill="none" xmlns="http://www.w3.org/2000/svg">
<path d="M3057.5 -261.667C2959.93 -220.915 2854.98 -193.724 2744.28 -180.859C2856.83 -243.864 2943.41 -344.352 2984.04 -463.059C2878.73 -404.853 2762.06 -362.085 2637.94 -339.553C2538.82 -438.65 2397.44 -500.125 2240.79 -500.125C1939.89 -500.125 1696 -272.167 1696 8.92002C1696 48.6979 1700.94 87.4326 1710.23 125.055C1257.56 103.636 856.063 -99.2868 587.465 -407.217C540.265 -331.973 513.715 -243.864 513.715 -150.887C513.715 25.8187 609.664 181.383 755.984 273.039C666.673 270.466 582.598 247.031 508.995 209.478C508.995 211.008 508.995 213.303 508.995 215.459C508.995 462.401 696.836 668.036 945.816 714.838C900.312 726.59 852.227 733.127 802.667 733.127C767.489 733.127 733.195 729.372 700.008 723.739C769.333 925.549 970.449 1073.05 1208.73 1077.43C1022.29 1213.73 787.475 1295.37 532.153 1295.37C488.05 1295.37 444.906 1293.01 402.279 1288.14C643.515 1432.16 929.96 1516.58 1237.42 1516.58C2239.32 1516.58 2787.43 740.777 2787.43 67.7523C2787.43 45.7076 2786.69 23.7325 2785.58 2.03546C2892.52 -69.1752 2984.71 -159.023 3057.5 -261.667Z" fill="#03A9F4"/>
</svg>
